<?xml version="1.0" encoding="UTF-8" standalone="no"?>
<!-- Created with Inkscape (http://www.inkscape.org/) -->

<svg
   xmlns:osb="http://www.openswatchbook.org/uri/2009/osb"
   xmlns:dc="http://purl.org/dc/elements/1.1/"
   xmlns:cc="http://creativecommons.org/ns#"
   xmlns:rdf="http://www.w3.org/1999/02/22-rdf-syntax-ns#"
   xmlns:svg="http://www.w3.org/2000/svg"
   xmlns="http://www.w3.org/2000/svg"
   xmlns:sodipodi="http://sodipodi.sourceforge.net/DTD/sodipodi-0.dtd"
   xmlns:inkscape="http://www.inkscape.org/namespaces/inkscape"
   width="900"
   height="900"
   viewBox="0 0 900 900"
   id="svg2"
   version="1.1"
   inkscape:version="0.91 r13725"
   sodipodi:docname="ReplayButton.svg"
   inkscape:export-filename="C:\Users\hello\Desktop\Noice.png"
   inkscape:export-xdpi="90"
   inkscape:export-ydpi="90">
  <defs
     id="defs4">
    <linearGradient
       id="linearGradient5611"
       osb:paint="solid">
      <stop
         style="stop-color:#313131;stop-opacity:1;"
         offset="0"
         id="stop5613" />
    </linearGradient>
  </defs>
  <sodipodi:namedview
     id="base"
     pagecolor="#ffffff"
     bordercolor="#666666"
     borderopacity="1.0"
     inkscape:pageopacity="0.0"
     inkscape:pageshadow="2"
     inkscape:zoom="0.49497475"
     inkscape:cx="383.85611"
     inkscape:cy="436.04583"
     inkscape:document-units="px"
     inkscape:current-layer="layer1"
     showgrid="false"
     inkscape:window-width="1366"
     inkscape:window-height="705"
     inkscape:window-x="-8"
     inkscape:window-y="-8"
     inkscape:window-maximized="1"
     showguides="true"
     inkscape:guide-bbox="true"
     units="px" />
  <metadata
     id="metadata7">
    <rdf:RDF>
      <cc:Work
         rdf:about="">
        <dc:format>image/svg+xml</dc:format>
        <dc:type
           rdf:resource="http://purl.org/dc/dcmitype/StillImage" />
        <dc:title />
      </cc:Work>
    </rdf:RDF>
  </metadata>
  <g
     inkscape:label="Layer 1"
     inkscape:groupmode="layer"
     id="layer1"
     transform="translate(0,-152.36239)">
    <ellipse
       style="opacity:1;fill:#5a5464;fill-opacity:1;stroke:none;stroke-width:5;stroke-linecap:round;stroke-miterlimit:4;stroke-dasharray:none"
       id="path3347"
       cx="452.28912"
       cy="604.67841"
       rx="412.81387"
       ry="432.56573" />
    <path
       style="opacity:1;fill:#ffffff;fill-opacity:1;stroke:none;stroke-width:5;stroke-linecap:round;stroke-miterlimit:4;stroke-dasharray:none"
       d="m 452.28906,184.625 c -147.84134,5.4e-4 -267.68999,119.85007 -267.68945,267.69141 5.4e-4,147.84058 120.50391,275.59103 267.68945,261.68945 72.62935,-6.8598 75.77671,-41.68616 73.03082,-56.64386 -2.74589,-14.9577 -14.0232,-17.76154 -73.03082,-16.14716 -104.3257,-5e-5 -188.89838,-84.57273 -188.89844,-188.89843 5e-5,-104.32571 84.57273,-188.89839 188.89844,-188.89844 104.32571,5e-5 188.89839,84.57273 188.89844,188.89844 -0.0578,7.81518 -0.60046,15.61924 -1.625,23.36718 l 76.71289,20.57813 c 2.44162,-14.5216 3.68085,-29.2199 3.70508,-43.94531 C 719.98101,304.4743 600.13117,184.62446 452.28906,184.625 Z"
       transform="translate(0,152.36239)"
       id="path4138"
       inkscape:connector-curvature="0"
       sodipodi:nodetypes="sssscssccccs" />
    <path
       sodipodi:type="star"
       style="opacity:1;fill:#ffffff;fill-opacity:1;stroke:none;stroke-width:5;stroke-linecap:round;stroke-miterlimit:4;stroke-dasharray:none"
       id="path4143"
       sodipodi:sides="3"
       sodipodi:cx="480"
       sodipodi:cy="515.21954"
       sodipodi:r1="142.34911"
       sodipodi:r2="71.174545"
       sodipodi:arg1="0.54902514"
       sodipodi:arg2="1.5962227"
       inkscape:flatsided="true"
       inkscape:rounded="0.12"
       inkscape:randomized="0"
       d="m 601.42858,589.50526 c -15.44,25.23846 -232.33904,19.72232 -246.47619,-6.26834 -14.13715,-25.99066 99.0895,-211.07267 128.66664,-210.32047 29.57714,0.7522 133.24955,191.35036 117.80955,216.58881 z"
       inkscape:transform-center-x="14.805451"
       inkscape:transform-center-y="17.704229"
       transform="matrix(-0.96592582,0.25881905,-0.25881905,-0.96592582,1264.606,942.85189)" />
  </g>
</svg>
